<?xml version="1.0" encoding="utf-8"?>
<!-- Generator: Adobe Illustrator 21.1.0, SVG Export Plug-In . SVG Version: 6.00 Build 0)  -->
<svg version="1.1" id="Layer_1" xmlns="http://www.w3.org/2000/svg" xmlns:xlink="http://www.w3.org/1999/xlink" x="0px" y="0px"
	 width="44px" height="88px" viewBox="0 0 44 88" style="enable-background:new 0 0 44 88;" xml:space="preserve">
<style type="text/css">
	.st0{fill:#FDD6B0;}
	.st1{fill:#F0C6A1;}
	.st2{fill:#7B491E;}
	.st3{fill:#FF6A00;}
	.st4{fill:#E4B794;}
	.st5{fill:#DEAB83;}
	.st6{fill:#C89473;}
	.st7{fill:#FFFFFF;}
	.st8{fill:#E9E9E9;}
	.st9{fill:#6C3408;}
</style>
<g>
	<path class="st0" d="M22,69.9c-10.7,0-19.4-8.6-19.4-19.2V23.2C2.6,12.6,11.3,4,22,4s19.4,8.6,19.4,19.2v27.6
		C41.4,61.3,32.7,69.9,22,69.9z"/>
	<path class="st1" d="M22,4v65.9c10.7,0,19.4-8.6,19.4-19.2V23.2C41.4,12.6,32.7,4,22,4z"/>
	<path class="st2" d="M22,4c-1.3,0-2.6,0.1-3.9,0.4c1.7,7.5,7,18.7,23.3,22.2v-3.4C41.4,12.6,32.7,4,22,4z"/>
	<path class="st2" d="M19.1,4.2C10.2,5.5,3.4,12.8,2.7,21.7c0.2,0,0.3-0.1,0.5-0.1C13.2,18.6,17.4,10.6,19.1,4.2z"/>
	<path class="st3" d="M22,84c6.9,0,12.5-5.5,12.6-12.2H9.4C9.5,78.5,15.1,84,22,84z"/>
	<g>
		<path class="st4" d="M22,77.3c-2.7,0-4.9-2.2-4.9-4.9v-3.9h9.8v3.9C26.9,75.2,24.7,77.3,22,77.3z"/>
	</g>
	<path class="st5" d="M2.6,44.3v6.5c0,10.6,8.7,19.2,19.4,19.2s19.4-8.6,19.4-19.2v-6.5H2.6z"/>
	<path class="st6" d="M22,69.9c4.7,0,9-1.6,12.3-4.4c0.5-0.4,0.9-0.8,1.4-1.2c0.9-0.9,1.7-1.8,2.4-2.8c0.3-0.5,0.7-1,1-1.6
		c0.3-0.5,0.6-1.1,0.8-1.7c0.1-0.3,0.2-0.6,0.3-0.9c0.2-0.6,0.4-1.2,0.6-1.8c0.4-1.5,0.6-3.1,0.6-4.8v-6.5H22V69.9z"/>
	<g>
		<polygon points="2.6,30.9 0,30.9 0,33.5 2.6,33.5 2.6,30.9 		"/>
	</g>
	<g>
		<polygon points="26.9,30.9 17.1,30.9 17.1,33.5 26.9,33.5 26.9,30.9 		"/>
	</g>
	<path d="M16.2,26.8v10.8H4.1V26.8H16.2 M16.6,24.2H3.8c-1.2,0-2.3,1-2.3,2.2v11.5c0,1.2,1,2.2,2.3,2.2h12.8c1.2,0,2.3-1,2.3-2.2
		V26.4C18.8,25.2,17.8,24.2,16.6,24.2z"/>
	<g>
		<polygon points="44,30.9 41.4,30.9 41.4,33.5 44,33.5 44,30.9 		"/>
	</g>
	<path d="M39.9,26.8v10.8H27.8V26.8H39.9 M40.2,24.2H27.4c-1.2,0-2.3,1-2.3,2.2v11.5c0,1.2,1,2.2,2.3,2.2h12.8c1.2,0,2.3-1,2.3-2.2
		V26.4C42.5,25.2,41.5,24.2,40.2,24.2z"/>
	<path class="st7" d="M22,63.2c6.9,0,12.5-5.5,12.6-12.2H9.4C9.5,57.7,15.1,63.2,22,63.2z"/>
	<path class="st8" d="M22,63.2c6.9,0,12.5-5.5,12.6-12.2H22V63.2z"/>
	<g>
		<g>
			<path d="M33.5,30.5c-0.5,0-1,0.2-1.3,0.5c-0.7,0.7-0.7,1.9,0,2.6c0.4,0.4,0.8,0.5,1.3,0.5s1-0.2,1.3-0.5c0.7-0.7,0.7-1.9,0-2.6
				C34.5,30.7,34,30.5,33.5,30.5L33.5,30.5z"/>
		</g>
		<path class="st7" d="M33.5,32.3c-0.4,0.3-0.9,0.3-1.3,0c-0.4-0.3-0.4-0.9,0-1.3s0.9-0.3,1.3,0S33.8,32,33.5,32.3z"/>
	</g>
	<g>
		<g>
			<path d="M10.2,30.5c-0.5,0-1,0.2-1.3,0.5c-0.7,0.7-0.7,1.9,0,2.6c0.4,0.4,0.8,0.5,1.3,0.5s1-0.2,1.3-0.5c0.7-0.7,0.7-1.9,0-2.6
				C11.1,30.7,10.7,30.5,10.2,30.5L10.2,30.5z"/>
		</g>
		<path class="st7" d="M10.1,32.3c-0.4,0.3-0.9,0.3-1.3,0c-0.4-0.3-0.4-0.9,0-1.3c0.4-0.3,0.9-0.3,1.3,0
			C10.5,31.4,10.5,32,10.1,32.3z"/>
	</g>
	<path class="st9" d="M22,4v9.9c3.4,5.4,9.3,10.6,19.4,12.8v-3.4C41.4,12.6,32.7,4,22,4z"/>
</g>
</svg>
