<?xml version="1.0" encoding="utf-8"?>
<!-- Generator: Adobe Illustrator 21.1.0, SVG Export Plug-In . SVG Version: 6.00 Build 0)  -->
<svg version="1.1" id="Capa_1" xmlns="http://www.w3.org/2000/svg" xmlns:xlink="http://www.w3.org/1999/xlink" x="0px" y="0px"
	 width="80px" height="80px" viewBox="0 0 80 80" style="enable-background:new 0 0 80 80;" xml:space="preserve">
<style type="text/css">
	.st0{fill:#FFFFFF;}
	.st1{fill:url(#SVGID_1_);}
	.st2{fill:url(#SVGID_2_);}
</style>
<circle class="st0" cx="585" cy="1131" r="50"/>
<g>
	<linearGradient id="SVGID_1_" gradientUnits="userSpaceOnUse" x1="547.4838" y1="1130.9978" x2="622.5162" y2="1130.9978">
		<stop  offset="0" style="stop-color:#EE0979"/>
		<stop  offset="1" style="stop-color:#FF6A00"/>
	</linearGradient>
	<path class="st1" d="M605.4,1126.9l-1.2-2.7L605.4,1126.9z M568.6,1128.9c-0.8-0.4-1.8,0-2.2,0.8l-8.2,17.8c-0.4,0.8,0,1.8,0.8,2.2
		c0.2,0.1,0.5,0.2,0.7,0.2c0.6,0,1.2-0.4,1.5-1l8.2-17.8C569.8,1130.3,569.4,1129.3,568.6,1128.9z M619.1,1147.7l-0.3,0.1l0.1,0.2
		c0.7,1.4,0.7,3,0.2,4.5c-0.5,1.5-1.6,2.6-3.1,3.3l-14.4,6.6c-0.8,0.4-1.6,0.5-2.5,0.5c0,0,0,0,0,0c-2.3,0-4.4-1.3-5.4-3.4
		l-8.8-19.1l-8.8,19c-1,2.1-3.1,3.4-5.4,3.4c-0.9,0-1.7-0.2-2.5-0.5l-14.4-6.6c-1.4-0.7-2.5-1.8-3.1-3.3s-0.5-3.1,0.2-4.5l0.1-0.2
		l-0.3-0.1c-2.9-1.4-4.2-4.9-2.9-7.8l6.8-14.7c0.7-1.4,1.8-2.5,3.3-3.1c1.5-0.5,3.1-0.5,4.5,0.2l0.3,0.1l0.5-1.1l1.3-2.9
		c1.4-3,5-4.4,8-3c0,0,0.1,0,0.1,0c2.1-1.2,4.7-1.4,7-0.3c2,0.9,3.5,2.6,4.1,4.6c0.4,0.1,0.8,0.2,1.1,0.3c0.3-0.1,0.5-0.1,0.8-0.2
		c0.6-2,2.1-3.7,4.1-4.6c2.3-1.1,4.9-0.9,7,0.3c0,0,0.1,0,0.1,0c1.5-0.7,3.1-0.7,4.6-0.2c1.5,0.6,2.7,1.7,3.4,3.1l1.3,2.9
		c0,0,0,0,0,0l0.5,1.1l0.3-0.1c1.4-0.7,3-0.7,4.5-0.2c1.5,0.5,2.7,1.6,3.3,3.1l6.8,14.7C623.3,1142.8,622,1146.3,619.1,1147.7z
		 M592.1,1123.4c-0.5,0.8-1.6,1-2.3,0.4c-0.1-0.1-0.3-0.2-0.4-0.3c0.2,0.3,0.3,0.7,0.5,1c0.3,0.8,0.4,1.6,0.5,2.4l12.5-5.7l-0.6-1.4
		c-0.3-0.7-0.8-1.1-1.5-1.4c-0.7-0.2-1.4-0.2-2.1,0.1c-0.2,0.1-0.3,0.2-0.5,0.3c-0.3,0.2-0.7,0.4-1.1,0.4c-0.4,0-0.8-0.1-1.1-0.4
		c-1.3-1-3-1.2-4.5-0.6c-0.8,0.4-1.5,1-1.9,1.8c0.8,0.2,1.5,0.6,2.2,1C592.5,1121.6,592.7,1122.6,592.1,1123.4z M552.6,1144.7
		l8.9-19.3l-0.3-0.1c-1.3-0.6-2.8,0-3.3,1.2l-6.8,14.7c-0.6,1.3,0,2.8,1.2,3.3L552.6,1144.7z M584.8,1132.9l-1.7-0.8l-0.1,0.1
		l-0.1-0.1l-1.4-0.7l-0.9-0.4l-14.8-6.8l-0.6,1.3v1.5l0-1.5l-0.6,1.3l-8.9,19.3l-0.4,0.8l-1,2.2l-0.1,0.2c-0.3,0.6-0.3,1.3-0.1,1.9
		c0.2,0.6,0.7,1.1,1.3,1.4l14.4,6.6c0.3,0.2,0.7,0.2,1.1,0.2c1,0,1.9-0.6,2.3-1.5l10-21.6l0.9-2l0.5-1.2L584.8,1132.9z
		 M586.7,1128.6c0.3-0.9,0.3-1.9,0-2.8c-0.3-0.8-0.9-1.6-1.6-2c-0.2-0.1-0.4-0.3-0.6-0.4c-0.4-0.2-0.8-0.3-1.2-0.3
		c-0.8-0.1-1.7,0-2.5,0.4c-0.2,0.1-0.4,0.2-0.6,0.3c-0.8,0.5-1.8,0.3-2.3-0.4c-0.5-0.8-0.3-1.8,0.4-2.3c0.7-0.5,1.4-0.8,2.2-1
		c-0.4-0.8-1.1-1.4-1.9-1.8c-1.5-0.7-3.2-0.5-4.5,0.5c-0.1,0.1-0.2,0.1-0.3,0.2c-0.6,0.3-1.3,0.2-1.8-0.2c-0.2-0.1-0.3-0.2-0.5-0.3
		c-1.3-0.6-2.9,0-3.6,1.3l-0.6,1.4l12.5,5.8l1.7,0.8l1.8,0.8l1.9,0.9L586.7,1128.6z M615.8,1149.4l-0.1-0.2l-0.4-0.8l-9.9-21.5
		l-1.2-2.7l-14.9,6.9l-0.8,1.7l-1.7,3.7l10,21.7c0.4,0.9,1.3,1.5,2.3,1.5c0,0,0,0,0,0c0.4,0,0.7-0.1,1.1-0.2l14.4-6.6
		c0.6-0.3,1.1-0.8,1.3-1.4C616.1,1150.7,616.1,1150,615.8,1149.4z M618.9,1141.3l-6.8-14.7c-0.6-1.3-2.1-1.8-3.3-1.2l-0.3,0.1
		l8.9,19.3l0.3-0.1C618.9,1144,619.5,1142.5,618.9,1141.3z M598.3,1132.3c-0.4-0.8-1.4-1.2-2.2-0.8c-0.8,0.4-1.2,1.4-0.8,2.2
		l8.2,17.8c0.3,0.6,0.9,1,1.5,1c0.2,0,0.5,0,0.7-0.2c0.8-0.4,1.2-1.4,0.8-2.2L598.3,1132.3z M603.6,1129.9c-0.4-0.8-1.4-1.2-2.2-0.8
		c-0.8,0.4-1.2,1.4-0.8,2.2l8.2,17.8c0.3,0.6,0.9,1,1.5,1c0.2,0,0.5,0,0.7-0.2c0.8-0.4,1.2-1.4,0.8-2.2L603.6,1129.9z M592.9,1134.8
		c-0.4-0.8-1.4-1.2-2.2-0.8c-0.8,0.4-1.2,1.4-0.8,2.2l8.2,17.8c0.3,0.6,0.9,1,1.5,1c0.2,0,0.5,0,0.7-0.2c0.8-0.4,1.2-1.4,0.8-2.2
		L592.9,1134.8z M573.9,1131.4c-0.8-0.4-1.8,0-2.2,0.8l-8.2,17.8c-0.4,0.8,0,1.8,0.8,2.2c0.2,0.1,0.5,0.2,0.7,0.2
		c0.6,0,1.2-0.4,1.5-1l8.2-17.8C575.2,1132.8,574.8,1131.8,573.9,1131.4z M579.3,1133.9c-0.8-0.4-1.8,0-2.2,0.8l-8.2,17.8
		c-0.4,0.8,0,1.8,0.8,2.2c0.2,0.1,0.5,0.2,0.7,0.2c0.6,0,1.2-0.4,1.5-1l8.2-17.8C580.5,1135.3,580.1,1134.3,579.3,1133.9z
		 M585.1,1113.4c0.9,0,1.7-0.8,1.7-1.7v-11c0-0.9-0.8-1.7-1.7-1.7c-0.9,0-1.7,0.8-1.7,1.7v11
		C583.4,1112.7,584.1,1113.4,585.1,1113.4z M591.4,1111.8c0.2,0.1,0.5,0.2,0.7,0.2c0.6,0,1.2-0.4,1.5-1l3-6.3c0.4-0.8,0-1.8-0.8-2.2
		c-0.8-0.4-1.8,0-2.2,0.8l-3,6.3C590.3,1110.4,590.6,1111.4,591.4,1111.8z M576.1,1111c0.3,0.6,0.9,1,1.5,1c0.2,0,0.5-0.1,0.7-0.2
		c0.8-0.4,1.2-1.4,0.8-2.2l-3-6.3c-0.4-0.8-1.4-1.2-2.2-0.8c-0.8,0.4-1.2,1.4-0.8,2.2L576.1,1111z"/>
</g>
<g>
	<circle class="st0" cx="40" cy="40" r="40"/>
	<g>
		<linearGradient id="SVGID_2_" gradientUnits="userSpaceOnUse" x1="9.987" y1="40" x2="70.013" y2="40">
			<stop  offset="0" style="stop-color:#EE0979"/>
			<stop  offset="1" style="stop-color:#FF6A00"/>
		</linearGradient>
		<path class="st2" d="M56.3,36.7l-1-2.1L56.3,36.7z M26.9,38.4c-0.7-0.3-1.5,0-1.8,0.7l-6.6,14.3c-0.3,0.7,0,1.5,0.7,1.8
			c0.2,0.1,0.4,0.1,0.6,0.1c0.5,0,1-0.3,1.2-0.8l6.6-14.3C27.8,39.5,27.5,38.7,26.9,38.4z M67.3,53.3L67,53.5l0.1,0.2
			c0.5,1.1,0.6,2.4,0.1,3.6c-0.4,1.2-1.3,2.1-2.4,2.6l-11.5,5.3c-0.6,0.3-1.3,0.4-2,0.4c0,0,0,0,0,0c-1.8,0-3.5-1.1-4.3-2.7l-7-15.3
			l-7,15.2c-0.8,1.7-2.4,2.7-4.3,2.7c-0.7,0-1.3-0.1-2-0.4l-11.5-5.3c-1.1-0.5-2-1.5-2.4-2.6c-0.4-1.2-0.4-2.5,0.1-3.6l0.1-0.2
			l-0.3-0.1c-2.4-1.1-3.4-3.9-2.3-6.2l5.4-11.8c0.5-1.1,1.5-2,2.6-2.4c1.2-0.4,2.5-0.4,3.6,0.1l0.3,0.1l0.4-0.9l1.1-2.3
			c1.1-2.4,4-3.5,6.4-2.4c0,0,0,0,0.1,0c1.7-1,3.8-1.1,5.6-0.2c1.6,0.7,2.8,2.1,3.3,3.7c0.3,0.1,0.6,0.1,0.9,0.2
			c0.2-0.1,0.4-0.1,0.7-0.2c0.5-1.6,1.7-3,3.3-3.7c1.8-0.8,3.9-0.7,5.6,0.2c0,0,0,0,0.1,0c1.2-0.5,2.5-0.6,3.7-0.1
			c1.2,0.4,2.2,1.3,2.7,2.5l1.1,2.3c0,0,0,0,0,0l0.4,0.9l0.3-0.1c1.1-0.5,2.4-0.6,3.6-0.1c1.2,0.4,2.1,1.3,2.6,2.4l5.4,11.8
			C70.7,49.5,69.6,52.3,67.3,53.3z M45.7,33.9c-0.4,0.6-1.3,0.8-1.9,0.3c-0.1-0.1-0.2-0.1-0.3-0.2c0.1,0.3,0.3,0.5,0.4,0.8
			c0.2,0.6,0.4,1.2,0.4,1.9l10-4.6L53.7,31c-0.2-0.5-0.7-0.9-1.2-1.1c-0.5-0.2-1.1-0.2-1.6,0.1c-0.1,0.1-0.3,0.1-0.4,0.2
			c-0.2,0.2-0.5,0.3-0.8,0.3c-0.3,0-0.6-0.1-0.9-0.3c-1-0.8-2.4-1-3.6-0.4c-0.7,0.3-1.2,0.8-1.6,1.4c0.6,0.2,1.2,0.5,1.7,0.8
			C46,32.4,46.1,33.3,45.7,33.9z M14.1,50.9l7.1-15.4L21,35.4c-1-0.5-2.2,0-2.7,1l-5.4,11.8c-0.5,1,0,2.2,1,2.7L14.1,50.9z
			 M39.8,41.5l-1.3-0.6l-0.1,0l0-0.1l-1.1-0.5l-0.7-0.3l-11.8-5.4l-0.5,1.1v1.2l0-1.2l-0.5,1.1l-7.1,15.4l-0.3,0.7l-0.8,1.8
			l-0.1,0.2c-0.2,0.5-0.2,1-0.1,1.5c0.2,0.5,0.6,0.9,1,1.1l11.5,5.3c0.3,0.1,0.6,0.2,0.8,0.2c0.8,0,1.5-0.5,1.8-1.2l8-17.3l0.7-1.6
			l0.4-1L39.8,41.5z M41.4,38c0.2-0.7,0.2-1.5,0-2.3c-0.2-0.7-0.7-1.2-1.3-1.6c-0.2-0.1-0.3-0.2-0.5-0.3c-0.3-0.1-0.6-0.2-1-0.3
			c-0.7-0.1-1.3,0-2,0.3c-0.2,0.1-0.3,0.2-0.5,0.3c-0.6,0.4-1.4,0.3-1.9-0.3c-0.4-0.6-0.3-1.4,0.3-1.9c0.5-0.4,1.1-0.7,1.7-0.8
			c-0.3-0.6-0.9-1.1-1.6-1.4c-1.2-0.5-2.6-0.4-3.6,0.4c-0.1,0.1-0.2,0.1-0.3,0.2c-0.5,0.2-1,0.2-1.4-0.2c-0.1-0.1-0.3-0.2-0.4-0.2
			c-1.1-0.5-2.4,0-2.9,1.1L25.8,32l10,4.6l1.3,0.6l1.5,0.7l1.5,0.7L41.4,38z M64.6,54.7l-0.1-0.2l-0.3-0.6l-7.9-17.2l-1-2.1
			l-11.9,5.5l-0.6,1.3l-1.4,3l8,17.4c0.3,0.7,1,1.2,1.8,1.2c0,0,0,0,0,0c0.3,0,0.6-0.1,0.8-0.2l11.5-5.3c0.5-0.2,0.9-0.6,1-1.1
			C64.9,55.8,64.9,55.2,64.6,54.7z M67.1,48.2l-5.4-11.8c-0.5-1-1.7-1.5-2.7-1l-0.3,0.1L65.9,51l0.3-0.1
			C67.2,50.4,67.6,49.2,67.1,48.2z M50.6,41.1c-0.3-0.7-1.1-1-1.8-0.7c-0.7,0.3-1,1.1-0.7,1.8l6.6,14.3c0.2,0.5,0.7,0.8,1.2,0.8
			c0.2,0,0.4,0,0.6-0.1c0.7-0.3,1-1.1,0.7-1.8L50.6,41.1z M54.9,39.1c-0.3-0.7-1.1-1-1.8-0.7c-0.7,0.3-1,1.1-0.7,1.8L59,54.5
			c0.2,0.5,0.7,0.8,1.2,0.8c0.2,0,0.4,0,0.6-0.1c0.7-0.3,1-1.1,0.7-1.8L54.9,39.1z M46.3,43c-0.3-0.7-1.1-1-1.8-0.7
			c-0.7,0.3-1,1.1-0.7,1.8l6.6,14.3c0.2,0.5,0.7,0.8,1.2,0.8c0.2,0,0.4,0,0.6-0.1c0.7-0.3,1-1.1,0.7-1.8L46.3,43z M31.2,40.3
			c-0.7-0.3-1.5,0-1.8,0.7l-6.6,14.3c-0.3,0.7,0,1.5,0.7,1.8c0.2,0.1,0.4,0.1,0.6,0.1c0.5,0,1-0.3,1.2-0.8l6.6-14.3
			C32.1,41.4,31.8,40.6,31.2,40.3z M35.4,42.3c-0.7-0.3-1.5,0-1.8,0.7l-6.6,14.3c-0.3,0.7,0,1.5,0.7,1.8c0.2,0.1,0.4,0.1,0.6,0.1
			c0.5,0,1-0.3,1.2-0.8l6.6-14.3C36.4,43.4,36.1,42.6,35.4,42.3z M40,25.9c0.7,0,1.3-0.6,1.3-1.3v-8.8c0-0.7-0.6-1.3-1.3-1.3
			c-0.7,0-1.3,0.6-1.3,1.3v8.8C38.7,25.3,39.3,25.9,40,25.9z M45.2,24.7c0.2,0.1,0.4,0.1,0.6,0.1c0.5,0,1-0.3,1.2-0.8l2.4-5.1
			c0.3-0.7,0-1.5-0.6-1.8c-0.7-0.3-1.5,0-1.8,0.6l-2.4,5.1C44.2,23.5,44.5,24.3,45.2,24.7z M32.9,24c0.2,0.5,0.7,0.8,1.2,0.8
			c0.2,0,0.4,0,0.6-0.1c0.7-0.3,1-1.1,0.6-1.8l-2.4-5.1c-0.3-0.7-1.1-1-1.8-0.6c-0.7,0.3-1,1.1-0.6,1.8L32.9,24z"/>
	</g>
</g>
</svg>
