<?xml version="1.0" encoding="utf-8"?>
<!-- Generator: Adobe Illustrator 21.1.0, SVG Export Plug-In . SVG Version: 6.00 Build 0)  -->
<svg version="1.1" id="Layer_1" xmlns="http://www.w3.org/2000/svg" xmlns:xlink="http://www.w3.org/1999/xlink" x="0px" y="0px"
	 width="66px" height="55px" viewBox="0 0 66 55" style="enable-background:new 0 0 66 55;" xml:space="preserve">
<style type="text/css">
	.st0{fill:#FFFFFF;}
</style>
<g>
	<g>
		<path class="st0" d="M29.1,34.8c-0.4,0-0.8,0.3-0.8,0.8v6.1c0,0.4,0.3,0.8,0.8,0.8c0.4,0,0.8-0.3,0.8-0.8v-6.1
			C29.9,35.2,29.6,34.8,29.1,34.8z"/>
		<path class="st0" d="M35.1,34.8c-0.4,0-0.8,0.3-0.8,0.8v6.1c0,0.4,0.3,0.8,0.8,0.8s0.8-0.3,0.8-0.8v-6.1
			C35.8,35.2,35.5,34.8,35.1,34.8z"/>
		<path class="st0" d="M41.8,29h-0.9v-0.9c0.3-0.6,0.5-1.2,0.5-2c0-1.9-1.5-3.5-3.3-3.8c-0.3-1.7-1.9-3.1-3.7-3.1
			c-1.1,0-2.1,0.4-2.8,1.2c-0.4-0.1-0.7-0.2-1.1-0.2c-1.4,0-2.7,0.8-3.4,2c-0.2,0-0.4,0-0.6,0c-2.1,0-3.8,1.7-3.8,3.8
			c0,0.7,0.2,1.4,0.5,2v14.4c0,2.6,2.1,4.7,4.7,4.7h8.3c2.4,0,4.4-1.8,4.6-4.1h0.9c1.7,0,3.1-1.4,3.1-3.1v-7.8
			C44.9,30.4,43.5,29,41.8,29z M26.5,23.9c0.3,0,0.5,0,0.8,0.1c0.2,0.1,0.4,0.1,0.6,0c0.2-0.1,0.3-0.3,0.4-0.5
			c0.3-1,1.2-1.6,2.2-1.6c0.4,0,0.7,0.1,1,0.2c0.4,0.2,0.8,0.1,1-0.3c0.4-0.6,1.1-1,1.9-1c1.2,0,2.2,1,2.2,2.2c0,0,0,0,0,0
			c0,0.2,0.1,0.4,0.2,0.6c0.2,0.1,0.4,0.2,0.6,0.2c0.1,0,0.1,0,0.2,0c1.2,0,2.2,1,2.2,2.2c0,1.2-1,2.2-2.2,2.2H31
			c-0.4,0-0.8,0.3-0.8,0.8V32c0,0.4-0.3,0.8-0.8,0.8c-0.4,0-0.8-0.3-0.8-0.8v-2.9c0-0.4-0.3-0.8-0.8-0.8h-1.4c-1.2,0-2.2-1-2.2-2.2
			S25.3,23.9,26.5,23.9z M39.4,42.4c0,1.7-1.4,3.1-3.1,3.1H28c-1.7,0-3.1-1.4-3.1-3.1V29.5c0.5,0.3,1.1,0.4,1.7,0.4h0.6V32
			c0,1.3,1,2.3,2.3,2.3c1.3,0,2.3-1,2.3-2.3v-2.1h5.8c0.6,0,1.2-0.1,1.7-0.4V42.4z M43.4,39.9c0,0.9-0.7,1.6-1.6,1.6h-0.9V30.5h0.9
			c0.9,0,1.6,0.7,1.6,1.6V39.9z"/>
	</g>
	<path class="st0" d="M15,34.2H0.6C0.3,34.2,0,34,0,33.7c0-0.3,0.3-0.6,0.6-0.6H15c0.3,0,0.6,0.3,0.6,0.6C15.5,34,15.3,34.2,15,34.2
		z"/>
	<path class="st0" d="M65.4,34.2H51c-0.3,0-0.6-0.3-0.6-0.6c0-0.3,0.3-0.6,0.6-0.6h14.4c0.3,0,0.6,0.3,0.6,0.6
		C66,34,65.7,34.2,65.4,34.2z"/>
	<g>
		<path class="st0" d="M33.7,0.6v9.9c0,0.3-0.3,0.6-0.6,0.6c-0.3,0-0.6-0.3-0.6-0.6V0.6c0-0.3,0.3-0.6,0.6-0.6
			C33.5,0,33.7,0.3,33.7,0.6z"/>
		<path class="st0" d="M57,16.1l-5.6,5.6c-0.2,0.2-0.5,0.1-0.7-0.1c-0.2-0.2-0.3-0.5-0.1-0.7l5.6-5.6c0.2-0.2,0.5-0.1,0.7,0.1
			C57.1,15.6,57.2,15.9,57,16.1z"/>
		<path class="st0" d="M14.6,21.7L9,16.1c-0.2-0.2-0.1-0.5,0.1-0.7c0.2-0.2,0.5-0.3,0.7-0.1l5.6,5.6c0.2,0.2,0.1,0.5-0.1,0.7
			C15.1,21.8,14.8,21.8,14.6,21.7z"/>
	</g>
	<g>
		<path class="st0" d="M14.2,49.3l-5.6,5.6c-0.2,0.2-0.5,0.1-0.7-0.1c-0.2-0.2-0.3-0.5-0.1-0.7l5.6-5.6c0.2-0.2,0.5-0.1,0.7,0.1
			C14.3,48.8,14.3,49.1,14.2,49.3z"/>
		<path class="st0" d="M57.4,54.9l-5.6-5.6c-0.2-0.2-0.1-0.5,0.1-0.7c0.2-0.2,0.5-0.3,0.7-0.1l5.6,5.6c0.2,0.2,0.1,0.5-0.1,0.7
			C57.9,55,57.6,55.1,57.4,54.9z"/>
	</g>
</g>
</svg>
