<?xml version="1.0" encoding="utf-8"?>
<!-- Generator: Adobe Illustrator 21.1.0, SVG Export Plug-In . SVG Version: 6.00 Build 0)  -->
<svg version="1.1" id="Layer_1" xmlns="http://www.w3.org/2000/svg" xmlns:xlink="http://www.w3.org/1999/xlink" x="0px" y="0px"
	 width="100px" height="100px" viewBox="0 0 100 100" style="enable-background:new 0 0 100 100;" xml:space="preserve">
<style type="text/css">
	.st0{fill:#E5E5E5;}
	.st1{fill:#FED6B1;}
	.st2{fill:#F0C7A2;}
	.st3{fill:#7C4A1E;}
	.st4{fill:#F36B21;}
	.st5{fill:#E4B794;}
	.st6{fill:#DEAC83;}
	.st7{fill:#C99473;}
	.st8{fill:#010101;}
	.st9{fill:#FFFFFF;}
	.st10{fill:#E9E8E9;}
	.st11{fill:#6B3715;}
</style>
<circle class="st0" cx="50" cy="50" r="50"/>
<g>
	<path class="st1" d="M50,75.9c-10.7,0-19.4-8.6-19.4-19.2V29.2C30.6,18.6,39.3,10,50,10s19.4,8.6,19.4,19.2v27.6
		C69.4,67.3,60.7,75.9,50,75.9z"/>
	<path class="st2" d="M50,10v65.9c10.7,0,19.4-8.6,19.4-19.2V29.2C69.4,18.6,60.7,10,50,10z"/>
	<path class="st3" d="M50,10c-1.3,0-2.6,0.1-3.9,0.4c1.7,7.5,7,18.7,23.3,22.2v-3.4C69.4,18.6,60.7,10,50,10z"/>
	<path class="st3" d="M47.1,10.2c-8.9,1.3-15.7,8.6-16.4,17.5c0.2,0,0.3-0.1,0.5-0.1C41.2,24.6,45.4,16.6,47.1,10.2z"/>
	<path class="st4" d="M50,90c6.9,0,12.5-5.5,12.6-12.2H37.4C37.5,84.5,43.1,90,50,90z"/>
	<g>
		<path class="st5" d="M50,83.3c-2.7,0-4.9-2.2-4.9-4.9v-3.9h9.8v3.9C54.9,81.2,52.7,83.3,50,83.3z"/>
	</g>
	<path class="st6" d="M30.6,50.3v6.5C30.6,67.4,39.3,76,50,76s19.4-8.6,19.4-19.2v-6.5H30.6z"/>
	<path class="st7" d="M50,75.9c4.7,0,9-1.6,12.3-4.4c0.5-0.4,0.9-0.8,1.4-1.2c0.9-0.9,1.7-1.8,2.4-2.8c0.3-0.5,0.7-1,1-1.6
		c0.3-0.5,0.6-1.1,0.8-1.7c0.1-0.3,0.2-0.6,0.3-0.9c0.2-0.6,0.4-1.2,0.6-1.8c0.4-1.5,0.6-3.1,0.6-4.8v-6.5H50V75.9z"/>
	<g>
		<polygon class="st8" points="30.6,36.9 28,36.9 28,39.5 30.6,39.5 		"/>
	</g>
	<g>
		<polygon class="st8" points="54.9,36.9 45.1,36.9 45.1,39.5 54.9,39.5 		"/>
	</g>
	<path class="st8" d="M44.2,32.8v10.8H32.1V32.8H44.2 M44.6,30.2H31.8c-1.2,0-2.3,1-2.3,2.2v11.5c0,1.2,1,2.2,2.3,2.2h12.8
		c1.2,0,2.3-1,2.3-2.2V32.4C46.8,31.2,45.8,30.2,44.6,30.2z"/>
	<g>
		<polygon class="st8" points="72,36.9 69.4,36.9 69.4,39.5 72,39.5 		"/>
	</g>
	<path class="st8" d="M67.9,32.8v10.8H55.8V32.8H67.9 M68.2,30.2H55.4c-1.2,0-2.3,1-2.3,2.2v11.5c0,1.2,1,2.2,2.3,2.2h12.8
		c1.2,0,2.3-1,2.3-2.2V32.4C70.5,31.2,69.5,30.2,68.2,30.2z"/>
	<path class="st9" d="M50,69.2c6.9,0,12.5-5.5,12.6-12.2H37.4C37.5,63.7,43.1,69.2,50,69.2z"/>
	<path class="st10" d="M50,69.2c6.9,0,12.5-5.5,12.6-12.2H50V69.2z"/>
	<g>
		<g>
			<path class="st8" d="M61.5,36.5c-0.5,0-1,0.2-1.3,0.5c-0.7,0.7-0.7,1.9,0,2.6c0.4,0.4,0.8,0.5,1.3,0.5s1-0.2,1.3-0.5
				c0.7-0.7,0.7-1.9,0-2.6C62.5,36.7,62,36.5,61.5,36.5z"/>
		</g>
		<path class="st9" d="M61.5,38.3c-0.4,0.3-0.9,0.3-1.3,0s-0.4-0.9,0-1.3s0.9-0.3,1.3,0S61.8,38,61.5,38.3z"/>
	</g>
	<g>
		<g>
			<path class="st8" d="M38.2,36.5c-0.5,0-1,0.2-1.3,0.5c-0.7,0.7-0.7,1.9,0,2.6c0.4,0.4,0.8,0.5,1.3,0.5s1-0.2,1.3-0.5
				c0.7-0.7,0.7-1.9,0-2.6C39.1,36.7,38.7,36.5,38.2,36.5z"/>
		</g>
		<path class="st9" d="M38.1,38.3c-0.4,0.3-0.9,0.3-1.3,0c-0.4-0.3-0.4-0.9,0-1.3c0.4-0.3,0.9-0.3,1.3,0
			C38.5,37.4,38.5,38,38.1,38.3z"/>
	</g>
	<path class="st11" d="M50,10v9.9c3.4,5.4,9.3,10.6,19.4,12.8v-3.4C69.4,18.6,60.7,10,50,10z"/>
</g>
</svg>
