<?xml version="1.0" encoding="utf-8"?>
<!-- Generator: Adobe Illustrator 21.1.0, SVG Export Plug-In . SVG Version: 6.00 Build 0)  -->
<svg version="1.1" id="Layer_1" xmlns="http://www.w3.org/2000/svg" xmlns:xlink="http://www.w3.org/1999/xlink" x="0px" y="0px"
	 width="100px" height="100px" viewBox="0 0 100 100" style="enable-background:new 0 0 100 100;" xml:space="preserve">
<style type="text/css">
	.st0{fill:#E5E5E5;}
	.st1{fill:#FED6B1;}
	.st2{fill:#F0C7A2;}
	.st3{fill:#00A14B;}
	.st4{fill:#E4B794;}
	.st5{fill:#DEAC83;}
	.st6{fill:#C99473;}
	.st7{fill:#FFFFFF;}
	.st8{fill:#E9E8E9;}
	.st9{fill:#010101;}
	.st10{fill:#4E4D4D;}
</style>
<circle class="st0" cx="50" cy="50" r="50"/>
<path class="st1" d="M50,75.9c-10.7,0-19.4-8.6-19.4-19.2V29.2C30.6,18.6,39.3,10,50,10s19.4,8.6,19.4,19.2v27.6
	C69.4,67.3,60.7,75.9,50,75.9z"/>
<path class="st1" d="M50,75.9c-10.7,0-19.4-8.6-19.4-19.2V29.2C30.6,18.6,39.3,10,50,10s19.4,8.6,19.4,19.2v27.6
	C69.4,67.3,60.7,75.9,50,75.9z"/>
<path class="st2" d="M50,10v65.9c10.7,0,19.4-8.6,19.4-19.2V29.2C69.4,18.6,60.7,10,50,10z"/>
<path class="st3" d="M50,90c6.9,0,12.5-5.5,12.6-12.2H37.4C37.5,84.5,43.1,90,50,90z"/>
<g>
	<path class="st4" d="M50,83.3c-2.7,0-4.9-2.2-4.9-4.9v-3.9h9.8v3.9C54.9,81.2,52.7,83.3,50,83.3z"/>
</g>
<path class="st5" d="M30.6,50.3v6.5C30.6,67.4,39.3,76,50,76s19.4-8.6,19.4-19.2v-6.5H30.6z"/>
<path class="st6" d="M50,75.9c4.7,0,9-1.6,12.3-4.4c0.5-0.4,0.9-0.8,1.4-1.2c0.9-0.9,1.7-1.8,2.4-2.8c0.3-0.5,0.7-1,1-1.6
	c0.3-0.5,0.6-1.1,0.8-1.7c0.1-0.3,0.2-0.6,0.3-0.9c0.2-0.6,0.4-1.2,0.6-1.8c0.4-1.5,0.6-3.1,0.6-4.8v-6.5H50V75.9z"/>
<path class="st7" d="M50,69.2c6.9,0,12.5-5.5,12.6-12.2H37.4C37.5,63.7,43.1,69.2,50,69.2z"/>
<path class="st8" d="M50,69.2c6.9,0,12.5-5.5,12.6-12.2H50V69.2z"/>
<g>
	<g>
		<path class="st9" d="M58.5,36.5c-0.5,0-1,0.2-1.3,0.5c-0.7,0.7-0.7,1.9,0,2.6c0.4,0.4,0.8,0.5,1.3,0.5s1-0.2,1.3-0.5
			c0.7-0.7,0.7-1.9,0-2.6C59.5,36.7,59,36.5,58.5,36.5z"/>
	</g>
	<path class="st7" d="M58.5,38.3c-0.4,0.3-0.9,0.3-1.3,0s-0.4-0.9,0-1.3s0.9-0.3,1.3,0S58.8,38,58.5,38.3z"/>
</g>
<g>
	<g>
		<path class="st9" d="M41.2,36.5c-0.5,0-1,0.2-1.3,0.5c-0.7,0.7-0.7,1.9,0,2.6c0.4,0.4,0.8,0.5,1.3,0.5s1-0.2,1.3-0.5
			c0.7-0.7,0.7-1.9,0-2.6C42.1,36.7,41.7,36.5,41.2,36.5z"/>
	</g>
	<path class="st7" d="M41.1,38.3c-0.4,0.3-0.9,0.3-1.3,0c-0.4-0.3-0.4-0.9,0-1.3c0.4-0.3,0.9-0.3,1.3,0C41.5,37.4,41.5,38,41.1,38.3
		z"/>
</g>
<path class="st10" d="M32.8,27.8c2.8-6.1,11.7-6.4,14.6-0.3c1.7,3.6,6.5,4.2,9.1,1.1l0.8-1c2.2-2.7,6.3-2.5,8.3,0.4
	c2,3,3.3,6.3,3.9,9.8v-8.7C69.4,18.6,60.7,10,50,10s-19.4,8.6-19.4,19.2v5.1C31.1,32.1,31.8,29.9,32.8,27.8z"/>
<path class="st10" d="M38.2,16c9.1,11,22.1,11.2,31.5,0.6l0,0l-2.2-2.1C59.7,7,49.7,6.6,41.5,13.3L38.2,16z"/>
<path class="st10" d="M35.1,9.8C36.7,22,46.1,28.3,57.9,25l0.1,0l-0.6-2.6C55,13.2,47.9,8.2,38.7,9.3L35.1,9.8z"/>
</svg>
