<?xml version="1.0" encoding="utf-8"?>
<!-- Generator: Adobe Illustrator 21.1.0, SVG Export Plug-In . SVG Version: 6.00 Build 0)  -->
<svg version="1.1" id="Layer_1" xmlns="http://www.w3.org/2000/svg" xmlns:xlink="http://www.w3.org/1999/xlink" x="0px" y="0px"
	 width="32px" height="32px" viewBox="0 0 32 32" style="enable-background:new 0 0 32 32;" xml:space="preserve">
<style type="text/css">
	.st0{fill:#F26522;}
	.st1{fill:#FFFFFF;}
</style>
<circle class="st0" cx="16" cy="16" r="16"/>
<g>
	<path class="st1" d="M14.2,16.9v4.5H12V9.9h3.5c0.8,0,1.5,0.1,2,0.2c0.6,0.2,1,0.4,1.4,0.7c0.4,0.3,0.6,0.6,0.8,1.1
		c0.2,0.4,0.3,0.9,0.3,1.3c0,0.4-0.1,0.8-0.2,1.1c-0.1,0.3-0.3,0.7-0.5,0.9c-0.2,0.3-0.5,0.5-0.8,0.7c-0.3,0.2-0.7,0.4-1.1,0.5
		c0.3,0.2,0.5,0.4,0.7,0.7l2.9,4.3h-1.9c-0.2,0-0.3,0-0.5-0.1c-0.1-0.1-0.2-0.2-0.3-0.3l-2.4-3.7c-0.1-0.1-0.2-0.2-0.3-0.3
		c-0.1-0.1-0.3-0.1-0.5-0.1H14.2z M14.2,15.4h1.3c0.4,0,0.8-0.1,1.1-0.2c0.3-0.1,0.5-0.2,0.7-0.4c0.2-0.2,0.3-0.4,0.4-0.6
		c0.1-0.2,0.1-0.5,0.1-0.8c0-0.6-0.2-1-0.6-1.4c-0.4-0.3-1-0.5-1.8-0.5h-1.4V15.4z"/>
</g>
</svg>
